# xmcd CD database file
#
# Track frame offsets:
#	150
#	23327
#	44130
#	70633
#	92588
#
# Disc length: 1530 seconds
#
# Revision: 0
# Processed by: cddbd v1.5.1PL0 Copyright (c) Steve Scherf et al.
# Submitted via: CDex 1.50
#
DISCID=3405f805
DTITLE=神楽 - 線香花火
DYEAR=2004
DGENRE=JPop
TTITLE0=線香花火
TTITLE1=朝顔
TTITLE2=星になった〜a,Rider☆74☆〜
TTITLE3=帰郷
TTITLE4=季節はずれのサクラ
EXTD=YEAR: 2004
EXTT0=
EXTT1=
EXTT2=
EXTT3=
EXTT4=
PLAYORDER=
